<svg width="20" height="20" viewBox="0 0 20 20" fill="none" xmlns="http://www.w3.org/2000/svg">
<g id="Message">
<g id="Iconly/Bold/Message">
<g id="Message_2">
<path id="Vector" d="M14.1162 2.50006C15.2337 2.50006 16.3087 2.94173 17.0995 3.73423C17.8912 4.52506 18.3337 5.59173 18.3337 6.70839V13.2917C18.3337 15.6167 16.442 17.5001 14.1162 17.5001H5.88366C3.55783 17.5001 1.66699 15.6167 1.66699 13.2917V6.70839C1.66699 4.38339 3.54949 2.50006 5.88366 2.50006H14.1162ZM15.0587 6.83339C14.8837 6.82423 14.717 6.88339 14.5912 7.00006L10.8337 10.0001C10.3503 10.4009 9.65783 10.4009 9.16699 10.0001L5.41699 7.00006C5.15783 6.80839 4.79949 6.83339 4.58366 7.05839C4.35866 7.28339 4.33366 7.64173 4.52449 7.89173L4.63366 8.00006L8.42533 10.9584C8.89199 11.3251 9.45783 11.5251 10.0503 11.5251C10.6412 11.5251 11.217 11.3251 11.6828 10.9584L15.442 7.95006L15.5087 7.88339C15.7078 7.64173 15.7078 7.29173 15.4995 7.05006C15.3837 6.92589 15.2245 6.85006 15.0587 6.83339Z" fill="#F4D35E"/>
</g>
</g>
</g>
</svg>
